<svg width="256" height="256" viewBox="0 0 256 256" fill="none" xmlns="http://www.w3.org/2000/svg">
<path d="M143.37 52.2058C141.008 58.9752 136.787 60.9939 132.828 56.2472C132.263 55.5691 131.702 54.7546 131.152 53.792C131.257 54.7 131.316 55.6041 131.331 56.4966C131.452 63.8155 118.81 87.3426 110.435 70.5926C109.952 69.6378 109.503 68.6908 109.098 67.7477C106.335 61.3486 105.439 55.0897 108.607 47.1629C113.455 36.4808 121.323 31.2547 132.083 30.3349C141.854 29.3256 150.19 13.3199 129.971 0.810059C133.638 6.87794 134.219 13.3667 127.224 17.9225C122.231 21.1766 116.07 19.9061 111.425 13.8967C108.35 9.43837 104.032 7.09228 97.3169 8.82652C95.9997 9.27469 94.737 9.80471 93.525 10.4127C93.3262 10.514 93.8602 11.348 93.6614 11.4532C93.2678 11.6598 92.1454 11.1453 91.7635 11.3675C85.3332 15.1243 80.5903 21.0129 78.0883 27.2406C75.8981 33.1682 76.093 39.3335 76.7633 46.2782C76.7126 50.8652 74.3042 53.0242 70.863 54.1232C60.1575 56.6447 62.0164 44.7038 63.5558 42.2875C56.2681 45.6196 51.7825 50.9275 48.4621 59.0765C43.1698 72.1398 46.8877 92.2141 58.6922 106.637C58.9767 106.984 60.0795 105.975 59.5534 107.662C59.4872 107.877 59.8457 108.001 59.9938 108.169C63.4077 112.027 67.4296 115.422 72.0477 118.087C91.2646 128.411 112.118 125.114 128.599 112.838C135.026 107.043 140.264 100.414 144.067 92.7753C144.488 91.9335 145.653 89.338 145.837 88.8976C148.623 82.214 150.373 74.8055 150.954 66.5708C152.049 53.3984 151.55 44.4232 154.726 35.9819C148.296 37.4862 145.225 45.3429 143.37 52.2058ZM57.1918 58.4647C50.8667 58.5504 53.9259 55.1755 58.0063 51.4264C56.5059 54.4233 56.085 56.8512 57.1918 58.4647ZM91.3582 24.9452C86.3308 18.3356 93.0301 13.2771 101.748 12.5171C103.646 22.755 91.8921 14.7931 91.3582 24.9452ZM137.886 95.8657C129.913 89.5523 142.442 91.3918 139.671 81.7697C145.981 86.5125 141.328 89.7121 137.886 95.8657Z" fill="#E52C47"/>
<path d="M59.5417 207.441C63.626 198.151 66.6774 188.743 68.7585 179.335C68.8482 178.934 70.5824 178.517 70.6642 178.115C70.7461 177.729 69.1794 177.363 69.2574 176.977C77.9519 134.358 66.7944 91.8399 40.9874 59.6259C52.1722 65.1482 60.8551 66.4927 71.3151 61.0991C72.3907 61.672 73.5871 62.0422 74.8771 62.2526C68.0765 67.6775 69.2106 74.2208 73.4936 78.4103C72.3361 88.1571 73.9106 100.117 76.1787 112.647L73.6495 114.97L76.0813 140.266C78.5053 127.522 80.6916 118.185 85.1851 106.723C91.0074 92.214 75.4461 79.9341 75.4305 68.7687C76.697 71.4616 79.8187 71.5824 81.3152 68.6946C90.4112 46.4224 77.3868 41.7263 82.344 31.6638C84.8811 39.6842 89.0316 46.2704 95.38 50.9002C95.7775 51.1925 95.0955 53.8737 95.5125 54.1504C95.8984 54.4077 97.3793 52.2525 97.7807 52.4941C99.4798 53.5191 101.319 54.4193 103.303 55.191C99.1018 71.1226 100.743 77.8608 105.326 79.9652C90.6372 105.457 80.1772 134.896 78.9457 162.281L93.4938 137.674C97.3559 130.141 97.5897 122.285 94.2732 114.12C93.0223 109.054 94.8266 105.905 99.589 104.615C109.842 101.719 107.114 86.7619 107.114 86.7619C121.062 93.504 116.678 109.498 132.999 118.321C126.39 120.277 120.953 123.66 116.674 128.454C116.464 128.691 115.376 128.072 115.17 128.317C114.757 128.808 115.232 130.168 114.842 130.687C113.825 132.039 112.882 133.481 112.021 135.02L113.182 136.193C109.11 142.893 103.131 147.117 95.3138 148.953C82.0673 166.841 74.577 174.362 66.6346 205.337C63.9845 205.388 62.4101 205.824 59.5417 207.441Z" fill="black"/>
<path d="M99.8579 166.603C98.451 166.603 97.0909 167.172 95.9217 168.248C95.0488 167.663 94.0433 167.351 93.0106 167.344C90.6567 167.344 88.7276 168.945 87.8585 171.63L87.839 171.693C86.9154 174.877 86.6036 178.131 86.892 181.642C86.9232 181.997 87.0167 182.34 87.1102 182.679C87.1843 182.948 87.2622 183.225 87.3012 183.501C87.3207 183.657 87.3051 183.829 87.2895 184.016C87.2856 184.07 87.2778 184.129 87.2739 184.183C86.5569 183.723 85.8008 183.275 85.0331 182.847C84.9084 182.776 84.7018 182.733 84.5108 182.733C83.9847 182.733 83.6379 183.049 83.6145 183.552C83.6028 183.618 83.5483 183.696 83.4547 183.79C83.3963 183.848 83.3261 183.907 83.2521 183.969L82.9832 184.187C82.7961 184.343 82.6012 184.518 82.4415 184.776C82.2544 185.228 82.1492 186.268 83.0962 186.954C85.3565 188.221 87.2583 189.581 88.8913 191.093L88.9848 191.385L89.1407 191.335C94.0121 195.96 96.1361 200.746 96.9857 208.985C97.0207 209.184 97.1649 209.421 97.6677 209.421C97.7144 209.421 97.7651 209.421 97.8119 209.417C97.9522 209.41 98.0574 209.336 98.1431 209.281C98.1665 209.265 98.1938 209.246 98.1899 209.246C98.1977 209.246 98.225 209.254 98.299 209.297C98.3341 209.316 98.3692 209.336 98.4081 209.347C98.4471 209.359 98.4939 209.367 98.5445 209.367C98.8524 209.367 99.5227 209.094 99.5968 209.063C99.6903 209.032 99.7838 209.016 99.889 209.016C99.9709 209.016 100.064 209.024 100.209 209.051H100.279C100.633 209.051 100.91 208.938 101.109 208.72C101.479 208.303 101.397 207.652 101.37 207.438C100.641 201.463 99.2382 197.414 96.3582 192.995C95.3644 191.467 94.1953 190.017 92.8897 188.7C91.062 182.628 90.8359 177.64 92.1766 173.002C92.3636 172.441 92.6949 171.876 93.0145 171.876C93.1392 171.876 93.295 171.942 93.447 172.055C92.7962 173.739 92.4533 175.684 92.4533 177.683C92.4533 183.891 95.7035 188.755 99.854 188.755C104.004 188.755 107.255 183.891 107.255 177.683C107.255 171.475 104.008 166.603 99.8579 166.603ZM99.8579 184.218C99.3434 184.218 98.5289 183.587 97.8781 182.18C97.8041 182.016 97.7027 181.884 97.6053 181.755C97.4884 181.599 97.3832 181.455 97.3247 181.276C97.2468 181.03 97.2273 180.719 97.2078 180.387C97.1922 180.165 97.1766 179.916 97.1416 179.682C97.0402 179.039 96.9857 178.365 96.9857 177.683C96.9857 173.751 98.716 171.139 99.8579 171.139C101 171.139 102.73 173.751 102.73 177.683C102.73 181.611 101 184.218 99.8579 184.218Z" fill="black"/>
<path d="M157.571 209.308C157.594 209.593 157.77 210.068 158.682 210.068C158.775 210.068 158.869 210.064 158.958 210.056C159.173 210.037 159.239 209.838 159.266 209.721C159.403 209.776 159.566 209.904 159.722 210.029C159.956 210.216 160.198 210.411 160.439 210.442C160.482 210.454 160.529 210.462 160.572 210.462C160.708 210.462 160.845 210.399 160.907 210.31L160.954 210.318C161.051 210.333 161.156 210.349 161.246 210.349C161.328 210.349 161.398 210.337 161.46 210.31C161.947 210.088 162.173 209.639 162.096 209.051C161.347 202.527 159.629 197.274 156.838 192.987C155.844 191.459 154.675 190.009 153.37 188.692C151.542 182.62 151.316 177.632 152.657 172.994C152.844 172.433 153.175 171.868 153.495 171.868C153.619 171.868 153.775 171.934 153.927 172.047C153.276 173.735 152.933 175.68 152.933 177.675C152.933 183.883 156.184 188.747 160.334 188.747C162.314 188.747 164.161 187.64 165.537 185.629C165.712 185.368 165.771 185.103 165.825 184.842C165.864 184.647 165.903 184.464 165.993 184.285C166.024 184.218 166.141 184.121 166.234 184.039C166.394 183.903 166.562 183.758 166.636 183.571C167.357 181.825 167.735 179.787 167.735 177.675C167.735 171.467 164.484 166.599 160.334 166.599C158.927 166.599 157.567 167.168 156.398 168.244C155.525 167.659 154.519 167.347 153.487 167.34C151.133 167.34 149.204 168.941 148.335 171.627L148.315 171.689C147.181 175.59 146.967 179.659 147.664 184.121C146.893 183.626 146.211 183.221 145.396 182.78C145.264 182.698 145.116 182.656 144.948 182.656C144.519 182.656 144.118 182.928 144.075 182.96C143.58 183.287 143.572 183.871 143.565 184.339C143.561 184.6 143.557 184.896 143.428 184.978C143.354 185.033 142.719 185.539 142.699 186.062C142.692 186.257 142.766 186.436 142.914 186.572L142.968 186.611C145.494 187.971 147.59 189.441 149.367 191.081L149.461 191.373L149.617 191.323C154.161 195.653 156.612 201.198 157.571 209.308ZM160.338 171.132C161.48 171.132 163.21 173.743 163.21 177.675C163.21 181.607 161.484 184.218 160.338 184.218C159.192 184.218 157.466 181.607 157.466 177.675C157.47 173.743 159.196 171.132 160.338 171.132Z" fill="black"/>
<path d="M122.894 193.287C123.65 188.84 124.433 184.246 124.433 177.055C124.433 171.03 121.008 166.311 116.635 166.311C112.263 166.311 108.837 171.03 108.837 177.055C108.837 177.652 108.86 178.119 108.907 178.571C108.923 178.731 109.02 179.004 109.468 179.004C109.519 179.004 109.573 179 109.644 178.996C109.69 178.992 109.741 178.992 109.792 178.992C109.94 178.992 110.026 179.016 110.08 179.07C110.326 179.316 110.715 179.444 111.234 179.444C111.382 179.444 111.522 179.433 111.651 179.421C111.916 179.39 112.118 179.343 112.157 179.331C112.348 179.277 112.5 179.21 112.633 179.132C113.245 178.766 113.365 178.069 113.365 177.055C113.365 173.501 115.092 170.843 116.635 170.843C118.178 170.843 119.905 173.501 119.905 177.055C119.905 183.864 119.157 188.271 118.428 192.535C117.637 197.188 116.818 201.997 117.025 209.616C117.013 209.811 117.079 209.994 117.208 210.138C117.539 210.508 118.213 210.544 118.241 210.547C118.272 210.551 118.299 210.551 118.327 210.551C118.549 210.551 118.72 210.477 118.849 210.423C118.884 210.407 119.118 210.329 119.312 210.329C119.406 210.329 119.476 210.349 119.519 210.384C119.554 210.415 119.613 210.473 119.652 210.512C119.811 210.676 119.94 210.809 120.111 210.809L120.166 210.805C120.314 210.777 120.408 210.66 120.532 210.497C120.649 210.345 120.723 210.263 120.751 210.251C121.386 210.017 121.522 209.62 121.534 209.047C121.39 202.133 122.122 197.839 122.894 193.287Z" fill="black"/>
<path d="M127.894 187.523L127.98 187.519C128.034 187.531 128.147 187.546 128.292 187.546C128.56 187.546 128.822 187.488 129.052 187.383C129.161 187.332 129.281 187.289 129.41 187.262C129.543 187.235 129.679 187.219 129.819 187.219H129.858C130.291 187.219 130.716 187.04 130.965 186.751C131.125 186.564 131.203 186.346 131.172 186.155C130.992 183.914 130.825 181.802 130.825 177.632C130.825 174.078 132.551 171.42 134.094 171.42C135.638 171.42 137.364 174.078 137.364 177.632C137.364 180.89 137.282 183.131 137.076 185.625C136.935 186.74 137.742 187.262 137.777 187.285C138.073 187.449 138.374 187.527 138.693 187.527C138.942 187.527 139.172 187.48 139.395 187.433C139.593 187.391 139.78 187.352 139.971 187.352C140.018 187.352 140.061 187.355 140.151 187.359C140.205 187.355 141.468 187.274 141.557 186.377C141.803 183.56 141.897 181.19 141.897 177.632C141.897 171.607 138.471 166.888 134.098 166.888C132.247 166.888 130.466 167.761 129.083 169.343C128.946 169.499 128.896 169.697 128.849 169.873C128.818 169.997 128.79 170.111 128.736 170.185C128.685 170.255 128.58 170.325 128.479 170.391C128.323 170.492 128.151 170.605 128.038 170.793C126.9 172.718 126.3 175.079 126.3 177.632C126.3 181.989 126.475 184.195 126.666 186.533C126.725 186.989 126.994 187.523 127.894 187.523Z" fill="black"/>
<path d="M201.94 232.477L202.026 232.473C202.08 232.485 202.193 232.5 202.338 232.5C202.607 232.5 202.868 232.442 203.098 232.336C203.207 232.286 203.327 232.243 203.456 232.216C203.589 232.188 203.725 232.173 203.865 232.173H203.904C204.337 232.173 204.762 231.994 205.011 231.705C205.171 231.518 205.249 231.3 205.218 231.109C205.038 228.868 204.871 226.756 204.871 222.586C204.871 219.032 206.597 216.374 208.14 216.374C209.684 216.374 211.41 219.032 211.41 222.586C211.41 225.844 211.328 228.085 211.122 230.579C210.982 231.693 211.788 232.216 211.823 232.239C212.12 232.403 212.42 232.481 212.739 232.481C212.989 232.481 213.218 232.434 213.441 232.387C213.639 232.344 213.826 232.305 214.017 232.305C214.064 232.305 214.107 232.309 214.197 232.313C214.251 232.309 215.514 232.227 215.604 231.331C215.849 228.513 215.943 226.144 215.943 222.586C215.943 216.561 212.517 211.841 208.144 211.841C206.293 211.841 204.512 212.714 203.129 214.297C202.992 214.452 202.942 214.651 202.895 214.827C202.864 214.951 202.836 215.064 202.782 215.138C202.731 215.208 202.626 215.279 202.525 215.345C202.369 215.446 202.197 215.559 202.084 215.746C200.946 217.671 200.346 220.033 200.346 222.586C200.346 226.943 200.522 229.149 200.713 231.487C200.771 231.939 201.04 232.477 201.94 232.477Z" fill="black"/>
<path d="M181.909 185.824C183.308 184.082 183.795 181.849 183.28 179.53L183.273 179.491C182.396 175.863 180.736 174.308 179.27 172.932C177.852 171.603 176.624 170.453 175.751 166.899C175.26 164.9 174.944 162.312 174.808 159.202C174.785 158.696 174.734 158.216 174.679 157.749C174.609 157.121 174.535 156.474 174.535 155.707C174.531 153.435 174.715 150.749 174.905 147.904C174.964 147.043 175.022 146.166 175.077 145.266C175.077 144.533 174.629 144.452 174.438 144.452C174.204 144.452 173.966 144.557 173.787 144.631L173.697 144.67C173.639 144.619 173.561 144.533 173.506 144.475C173.292 144.245 173.152 144.101 172.98 144.074C172.672 144.019 172.485 143.941 172.345 143.883C172.232 143.836 172.138 143.793 172.029 143.793C171.936 143.793 171.846 143.824 171.796 143.871C171.78 143.879 171.702 143.894 171.655 143.902C171.324 143.964 170.63 144.093 170.556 144.962C169.017 169.534 172.817 173.096 176.168 176.241C177.407 177.402 178.3 178.24 178.857 180.532C179.068 181.502 178.904 182.328 178.37 182.995C177.758 183.754 176.733 184.226 175.689 184.226C174.742 184.226 173.717 183.197 173.074 181.603C172.836 181.065 172.493 180.952 172.248 180.952C171.796 180.952 171.437 181.338 171.421 181.354C171.242 181.529 170.763 181.611 170.295 181.689C170.178 181.708 170.061 181.728 169.948 181.751C169.664 181.806 169.465 181.86 169.297 181.931C168.647 182.207 168.654 182.694 168.775 183.053C170.1 186.572 172.75 188.758 175.689 188.758C178.113 188.751 180.436 187.656 181.909 185.824Z" fill="black"/>
<path d="M141.051 212.04C140.49 212.04 139.932 212.118 139.391 212.274C138.997 212.387 138.724 212.632 138.455 212.874C138.307 213.007 138.151 213.147 137.98 213.256C137.836 213.35 137.645 213.416 137.446 213.486C137.13 213.599 136.803 213.716 136.55 213.957C136.183 214.308 135.836 214.71 135.521 215.142C134.067 213.139 132.103 212.036 129.987 212.036C129.765 212.036 129.539 212.048 129.317 212.075C130.073 210.711 130.934 209.425 131.85 208.065C134.757 203.739 138.054 198.837 138.798 189.776C138.814 189.628 138.779 189.503 138.697 189.413C138.642 189.351 138.537 189.277 138.362 189.277C138.07 189.277 137.656 189.487 137.228 189.725C137.228 189.725 137.095 189.799 137.064 189.815C137.041 189.787 137.01 189.752 136.982 189.721C136.885 189.6 136.741 189.421 136.503 189.421H136.273C135.875 189.421 135.404 189.401 134.897 189.261C134.847 189.249 134.8 189.242 134.753 189.242C134.453 189.242 134.27 189.503 134.246 189.76C133.541 197.418 130.766 201.545 128.081 205.54C125.182 209.854 122.185 214.316 122.185 222.414L122.189 222.531C122.185 222.613 122.185 222.699 122.185 222.781C122.185 226.132 122.411 227.434 122.695 229.078C122.812 229.745 122.933 230.439 123.054 231.358C123.112 231.806 123.397 231.853 123.514 231.853C123.592 231.853 123.677 231.834 123.759 231.795C123.783 231.787 123.954 231.74 125.002 231.655C125.115 231.647 125.213 231.588 125.302 231.534C125.326 231.518 125.38 231.487 125.384 231.483C125.419 231.483 125.47 231.503 125.521 231.522C125.603 231.553 125.704 231.592 125.864 231.592C126.405 231.58 126.815 231.413 127.083 231.101C127.372 230.766 127.477 230.291 127.399 229.683C127.313 228.989 127.216 228.447 127.122 227.905C126.9 226.619 126.705 225.513 126.705 222.781C126.705 219.226 128.432 216.569 129.975 216.569C131.518 216.569 133.245 219.226 133.245 222.781V224.207C133.245 224.379 133.299 224.53 133.401 224.632C133.479 224.714 133.584 224.757 133.693 224.757C133.751 224.757 133.806 224.745 133.864 224.718C134.118 224.601 134.383 224.55 134.726 224.55C134.893 224.55 135.061 224.562 135.244 224.577C135.412 224.589 135.575 224.601 135.739 224.605C135.868 224.605 135.961 224.534 136.016 224.476L136.125 224.499C136.382 224.55 136.631 224.601 136.799 224.601C136.819 224.601 136.9 224.597 136.912 224.593L136.947 224.573C137.762 224.184 137.82 223.393 137.773 223.128V222.788C137.773 219.234 139.5 216.576 141.043 216.576C142.586 216.576 144.313 219.25 144.313 222.827C144.313 223.841 144.344 224.753 144.367 225.489C144.441 227.703 144.488 229.164 143.837 230.856C143.736 231.074 143.666 231.53 143.849 231.818C143.946 231.97 144.091 232.056 144.254 232.06L144.317 232.107C144.453 232.208 144.656 232.36 144.968 232.379H145.022C145.521 232.379 146.024 232.485 146.211 232.52C146.23 232.59 146.269 232.73 146.417 232.792C146.632 232.878 146.819 232.925 147.014 232.941H147.053C147.45 232.941 147.929 232.703 148.089 232.247C148.841 229.086 148.841 226.853 148.841 222.792C148.849 216.76 145.423 212.04 141.051 212.04Z" fill="black"/>
<path d="M167.824 212.04C165.708 212.04 163.744 213.143 162.29 215.146C160.837 213.143 158.873 212.04 156.756 212.04C153.713 212.04 150.934 214.46 149.683 218.201C149.531 218.615 149.543 218.989 149.714 219.308C149.936 219.721 150.416 220.018 151.137 220.193C151.242 220.216 151.355 220.228 151.476 220.228C151.994 220.228 152.516 220.006 152.575 219.979L152.622 219.951C152.622 219.951 152.645 219.94 152.723 219.94C152.789 219.94 152.863 219.947 152.957 219.959C153.058 219.971 153.163 219.979 153.268 219.979C153.685 219.979 153.958 219.784 154.06 219.421C154.687 217.714 155.774 216.565 156.764 216.565C158.307 216.565 160.034 219.223 160.034 222.777C160.034 228.085 160.233 229.472 160.595 231.994C160.685 232.508 161.036 232.769 161.636 232.769C161.803 232.769 161.986 232.75 162.224 232.711C162.353 232.687 162.474 232.633 162.579 232.578C162.68 232.527 162.778 232.481 162.855 232.481C162.887 232.481 162.914 232.488 162.945 232.504C162.976 232.52 163.05 232.586 163.109 232.637C163.284 232.792 163.483 232.972 163.713 232.972C163.756 232.972 163.802 232.964 163.841 232.952C164.044 232.886 164.153 232.695 164.258 232.508C164.286 232.457 164.36 232.329 164.371 232.317C164.656 232.262 164.866 232.134 164.987 231.931C165.155 231.658 165.085 231.374 165.077 231.335C164.781 229.289 164.621 228.166 164.574 224.873C164.57 224.581 164.535 224.308 164.5 224.004C164.457 223.665 164.414 223.315 164.414 222.901C164.414 222.757 164.461 222.555 164.504 222.375C164.543 222.212 164.582 222.044 164.594 221.892C164.847 218.7 166.468 216.557 167.828 216.557C169.372 216.557 171.098 219.215 171.098 222.769C171.098 234.562 168.514 238.704 166.016 242.711C164.173 245.669 162.263 248.724 161.64 254.258C161.601 254.41 161.643 254.523 161.686 254.593C161.823 254.8 162.099 254.831 162.423 254.87C162.676 254.901 162.996 254.936 163.144 255.065C163.261 255.166 163.358 255.283 163.46 255.404C163.689 255.68 163.951 255.996 164.449 255.996C164.492 256 164.535 256 164.574 256C165.038 256 165.498 255.809 165.802 255.486C166.055 255.217 166.184 254.874 166.164 254.519C165.958 250.918 167.47 248.681 168.931 246.518C169.223 246.09 169.551 245.602 169.859 245.111C172.563 240.778 175.626 235.863 175.626 222.773C175.623 216.759 172.197 212.04 167.824 212.04Z" fill="black"/>
<path d="M197.264 216.163C197.209 216.027 197.01 215.548 196.784 215.064C196.578 214.624 196.402 214.3 196.258 214.098C195.771 213.408 195.186 212.866 194.52 212.484C193.783 212.06 192.957 211.845 192.065 211.845C190.818 211.853 189.59 212.336 188.6 213.198C187.513 212.313 186.266 211.841 184.999 211.841C180.849 211.841 177.598 216.705 177.598 222.917C177.598 229.129 180.849 233.993 184.999 233.993C189.15 233.993 192.4 229.129 192.4 222.917C192.4 220.781 192.01 218.724 191.27 216.997C191.535 216.569 191.878 216.378 192.1 216.374C192.419 216.374 192.747 216.935 192.934 217.488C193.955 221.015 194.056 224.799 193.253 229.051C192.918 230.84 194.274 231.697 194.333 231.736L194.473 231.818C194.777 231.994 195.062 232.157 195.483 232.22L195.541 232.223C195.716 232.223 195.845 232.114 195.938 232.036C195.962 232.017 195.993 231.99 195.981 231.982C196.133 232.036 196.278 232.064 196.418 232.064C196.609 232.064 196.776 232.013 196.913 231.908C197.162 231.725 197.454 231.44 197.439 231.117C197.349 228.981 197.497 226.974 197.645 225.029C197.879 221.943 198.098 219.028 197.264 216.163ZM184.999 216.374C186.141 216.374 187.871 218.985 187.871 222.917C187.871 226.849 186.141 229.46 184.999 229.46C183.857 229.46 182.127 226.849 182.127 222.917C182.127 218.981 183.857 216.374 184.999 216.374Z" fill="black"/>
</svg>
